<svg width="20px" height="20px" viewBox="0 0 48 48" xmlns="http://www.w3.org/2000/svg">
    <title>google</title>
    <path fill="#4285F4" d="M45.12 24.5c0-1.56-.14-3.06-.4-4.5H24v8.51h11.84c-.51 2.75-2.06 5.08-4.39 6.64v5.52h7.11c4.16-3.83 6.56-9.47 6.56-16.17z"/>
    <path fill="#34A853" d="M24 48c6.48 0 11.93-2.13 15.89-5.82l-7.11-5.52c-2.17 1.45-4.92 2.3-8.78 2.3-6.76 0-12.47-4.55-14.51-10.66H2.26v5.71C6.2 42.1 14.45 48 24 48z"/>
    <path fill="#FBBC05" d="M9.49 28.19c-.47-1.42-.74-2.92-.74-4.47s.27-3.05.74-4.47V13.54H2.26C.86 16.43 0 20.09 0 24.11c0 4.02.86 7.68 2.26 10.57l7.23-5.49z"/>
    <path fill="#EA4335" d="M24 9.32c3.55 0 6.63 1.25 9.09 3.57l6.32-6.32C35.91 2.51 30.48 0 24 0 14.45 0 6.2 5.9 2.26 13.54l7.23 5.71C11.53 13.86 17.24 9.32 24 9.32z"/>
</svg>
